<?xml version="1.0" encoding="utf-8"?>
<!-- Generator: Adobe Illustrator 25.0.0, SVG Export Plug-In . SVG Version: 6.00 Build 0)  -->
<svg version="1.1" id="Layer_1" xmlns="http://www.w3.org/2000/svg" xmlns:xlink="http://www.w3.org/1999/xlink" x="0px" y="0px"
	 viewBox="0 0 24.49 24.78" style="enable-background:new 0 0 24.49 24.78;" xml:space="preserve">
<style type="text/css">
	.st0{opacity:0.88;fill-rule:evenodd;clip-rule:evenodd;fill:#349194;}
</style>
<path class="st0" d="M9.73,12.47v9.37c0,0.13,0.11,0.24,0.24,0.24h3.48c0.13,0,0.24-0.11,0.24-0.24v-9.52h2.52
	c0.13,0,0.23-0.1,0.24-0.22l0.24-2.87c0.01-0.14-0.1-0.26-0.24-0.26h-2.77V6.92c0-0.48,0.39-0.86,0.86-0.86h1.94
	c0.13,0,0.24-0.11,0.24-0.24V2.94c0-0.13-0.11-0.24-0.24-0.24h-3.29c-1.93,0-3.49,1.56-3.49,3.49v2.77H7.99
	c-0.13,0-0.24,0.11-0.24,0.24v2.87c0,0.13,0.11,0.24,0.24,0.24h1.74V12.47z"/>
</svg>
