<?xml version="1.0" encoding="utf-8"?>
<!-- Generator: Adobe Illustrator 25.0.0, SVG Export Plug-In . SVG Version: 6.00 Build 0)  -->
<svg version="1.1" id="Layer_1" xmlns="http://www.w3.org/2000/svg" xmlns:xlink="http://www.w3.org/1999/xlink" x="0px" y="0px"
	 viewBox="0 0 24.49 24.78" style="enable-background:new 0 0 24.49 24.78;" xml:space="preserve">
<style type="text/css">
	.st0{opacity:0.88;}
	.st1{fill:#349194;}
</style>
<g class="st0">
	<circle class="st1" cx="17.61" cy="7.06" r="1.19"/>
	<path class="st1" d="M12.33,7.4c-2.75,0-4.99,2.24-4.99,4.99s2.24,4.99,4.99,4.99s4.99-2.24,4.99-4.99S15.08,7.4,12.33,7.4z
		 M12.33,15.59c-1.76,0-3.2-1.43-3.2-3.2c0-1.76,1.43-3.2,3.2-3.2s3.2,1.43,3.2,3.2C15.53,14.16,14.09,15.59,12.33,15.59z"/>
	<g>
		<path class="st1" d="M16.29,22.53H8.2c-3.36,0-6.09-2.73-6.09-6.09v-8.1c0-3.36,2.73-6.09,6.09-6.09h8.1
			c3.36,0,6.09,2.73,6.09,6.09v8.1C22.38,19.8,19.65,22.53,16.29,22.53z M8.2,4.16c-2.31,0-4.18,1.88-4.18,4.18v8.1
			c0,2.31,1.88,4.18,4.18,4.18h8.1c2.31,0,4.18-1.88,4.18-4.18v-8.1c0-2.31-1.88-4.18-4.18-4.18H8.2z"/>
	</g>
</g>
</svg>
