<?xml version="1.0" encoding="utf-8"?>
<!-- Generator: Adobe Illustrator 25.0.0, SVG Export Plug-In . SVG Version: 6.00 Build 0)  -->
<svg version="1.1" id="Layer_1" xmlns="http://www.w3.org/2000/svg" xmlns:xlink="http://www.w3.org/1999/xlink" x="0px" y="0px"
	 viewBox="0 0 24.49 24.78" style="enable-background:new 0 0 24.49 24.78;" xml:space="preserve">
<style type="text/css">
	.st0{fill:#349194;}
</style>
<g id="XMLID_1708_">
	<g>
		<g id="XMLID_31_">
			<rect id="XMLID_33_" x="4.23" y="9.61" class="st0" width="3.45" height="11.13"/>
			<path id="XMLID_32_" class="st0" d="M5.94,8.15c1.13,0,2.04-0.92,2.04-2.05S7.06,4.04,5.94,4.04C4.81,4.04,3.9,4.96,3.9,6.1
				S4.81,8.15,5.94,8.15z"/>
		</g>
		<path id="XMLID_30_" class="st0" d="M13.18,14.9c0-1.56,0.72-2.5,2.1-2.5c1.27,0,1.88,0.89,1.88,2.5c0,1.6,0,5.84,0,5.84h3.43
			c0,0,0-4.07,0-7.05c0-2.98-1.69-4.42-4.05-4.42c-2.36,0-3.35,1.84-3.35,1.84v-1.5h-3.3v11.13h3.3
			C13.18,20.74,13.18,16.61,13.18,14.9z"/>
	</g>
</g>
</svg>
