<?xml version="1.0" encoding="UTF-8" standalone="no"?>
<!-- Generator: Adobe Illustrator 25.0.0, SVG Export Plug-In . SVG Version: 6.00 Build 0)  -->

<svg
   version="1.1"
   id="Layer_1"
   x="0px"
   y="0px"
   viewBox="0 0 19.25 19.249999"
   xml:space="preserve"
   sodipodi:docname="whatsapp-s.svg"
   width="19.25"
   height="19.25"
   inkscape:version="1.1.2 (b8e25be833, 2022-02-05)"
   xmlns:inkscape="http://www.inkscape.org/namespaces/inkscape"
   xmlns:sodipodi="http://sodipodi.sourceforge.net/DTD/sodipodi-0.dtd"
   xmlns="http://www.w3.org/2000/svg"
   xmlns:svg="http://www.w3.org/2000/svg"><defs
   id="defs11" /><sodipodi:namedview
   id="namedview9"
   pagecolor="#ffffff"
   bordercolor="#666666"
   borderopacity="1.0"
   inkscape:pageshadow="2"
   inkscape:pageopacity="0.0"
   inkscape:pagecheckerboard="0"
   showgrid="false"
   fit-margin-top="0"
   fit-margin-left="0"
   fit-margin-right="0"
   fit-margin-bottom="0"
   inkscape:zoom="4.2271992"
   inkscape:cx="-52.162197"
   inkscape:cy="7.5700241"
   inkscape:window-width="1920"
   inkscape:window-height="1018"
   inkscape:window-x="0"
   inkscape:window-y="30"
   inkscape:window-maximized="1"
   inkscape:current-layer="XMLID_00000050622338940668924130000004353210692137070514_" />
<style
   type="text/css"
   id="style2">
	.st0{fill-rule:evenodd;clip-rule:evenodd;fill:#349194;}
</style>
<g
   id="XMLID_00000161629152422128519740000007085420223530128771_"
   transform="translate(-2.62,-2.76)">
	<g
   id="XMLID_00000050622338940668924130000004353210692137070514_">
		<path
   style="fill:#ffffff;stroke:none;stroke-width:1px;stroke-linecap:butt;stroke-linejoin:miter;stroke-opacity:1"
   d="M 6.0431423,15.891294 4.0928184,20.39086 9.5136268,19.304877 Z"
   id="path1080" /><ellipse
   style="fill:#ffffff"
   id="path926"
   cx="12.556879"
   cy="12.107737"
   rx="8.5155869"
   ry="8.1969376" /><path
   id="XMLID_00000071538717897474036280000007084632428969049222_"
   class="st0"
   d="m 21.86,11.9 c -0.13,-5.07 -4.3,-9.14 -9.44,-9.14 -5.08,0 -9.22,3.98 -9.44,8.97 0,0.14 -0.01,0.27 -0.01,0.41 0,1.77 0.5,3.43 1.35,4.84 l -1.7,5.03 5.23,-1.66 c 1.35,0.74 2.91,1.17 4.57,1.17 5.22,0 9.45,-4.2 9.45,-9.38 0,-0.08 0,-0.16 -0.01,-0.24 z m -9.44,8.13 c -1.61,0 -3.11,-0.48 -4.37,-1.3 L 5,19.69 5.99,16.76 c -0.95,-1.3 -1.51,-2.9 -1.51,-4.62 0,-0.26 0.01,-0.51 0.04,-0.77 0.38,-3.98 3.78,-7.11 7.9,-7.11 4.17,0 7.6,3.21 7.92,7.27 0.02,0.2 0.03,0.41 0.03,0.61 -0.01,4.35 -3.57,7.89 -7.95,7.89 z" />
		<path
   id="XMLID_00000127007409367031617820000016884740529413173426_"
   class="st0"
   d="m 16.75,14.04 c -0.23,-0.11 -1.37,-0.67 -1.58,-0.75 -0.21,-0.08 -0.37,-0.11 -0.52,0.12 -0.15,0.23 -0.6,0.75 -0.73,0.9 -0.14,0.15 -0.27,0.17 -0.5,0.06 -0.23,-0.12 -0.98,-0.35 -1.86,-1.14 -0.69,-0.61 -1.15,-1.36 -1.29,-1.59 -0.13,-0.23 -0.01,-0.35 0.1,-0.47 0.11,-0.11 0.23,-0.27 0.35,-0.4 0.03,-0.04 0.06,-0.08 0.08,-0.11 0.05,-0.08 0.09,-0.16 0.15,-0.27 0.08,-0.15 0.04,-0.29 -0.02,-0.4 C 10.87,9.87 10.41,8.74 10.21,8.28 10.01,7.8 9.82,7.88 9.68,7.88 9.55,7.88 9.39,7.86 9.24,7.86 9.09,7.86 8.83,7.92 8.62,8.15 8.41,8.38 7.81,8.94 7.81,10.07 c 0,0.27 0.05,0.53 0.12,0.78 0.23,0.81 0.74,1.48 0.83,1.59 0.11,0.15 1.6,2.55 3.95,3.47 2.36,0.92 2.36,0.61 2.78,0.57 0.42,-0.04 1.37,-0.55 1.56,-1.09 0.19,-0.54 0.19,-1 0.14,-1.09 -0.06,-0.09 -0.21,-0.15 -0.44,-0.26 z" />
	</g>
</g>
</svg>
