<?xml version="1.0" encoding="utf-8"?>
<!-- Generator: Adobe Illustrator 25.0.0, SVG Export Plug-In . SVG Version: 6.00 Build 0)  -->
<svg version="1.1" id="Layer_1" xmlns="http://www.w3.org/2000/svg" xmlns:xlink="http://www.w3.org/1999/xlink" x="0px" y="0px"
	 viewBox="0 0 198.41 36.04" style="enable-background:new 0 0 198.41 36.04;" xml:space="preserve">
<style type="text/css">
	.st0{fill:#FFFFFF;}
</style>
<g>
	<g>
		<polygon class="st0" points="25.74,14.82 25.74,22.1 23.09,19.45 19.45,15.81 15.81,12.17 8.79,5.15 5.15,5.15 5.15,30.89 
			10.3,30.89 10.3,28.5 12.17,30.37 12.69,30.89 15.81,34.01 17.83,36.04 0,36.04 0,0 10.92,0 19.45,8.53 23.09,12.17 		"/>
		<g>
			<polygon class="st0" points="36.04,0 36.04,36.04 25.11,36.04 23.09,34.01 19.97,30.89 19.45,30.37 10.3,21.22 10.3,13.94 
				12.17,15.81 19.45,23.09 23.09,26.73 27.25,30.89 30.89,30.89 30.89,5.15 25.74,5.15 25.74,7.54 23.35,5.15 23.09,4.89 
				19.45,1.25 18.2,0 			"/>
		</g>
	</g>
	<g>
		<path class="st0" d="M44.6,8.13h1.95l6.41,8.28V8.13h2.07V20.1h-1.76l-6.6-8.52v8.52H44.6V8.13z"/>
		<path class="st0" d="M58.12,8.13h8.87v1.88h-6.77v3.11h6v1.88h-6v3.21h6.86v1.88h-8.96V8.13z"/>
		<path class="st0" d="M69.39,15.02V8.13h2.1v6.81c0,2.22,1.15,3.42,3.03,3.42c1.86,0,3.01-1.13,3.01-3.33V8.13h2.1v6.79
			c0,3.57-2.02,5.37-5.15,5.37C71.38,20.29,69.39,18.49,69.39,15.02z"/>
		<path class="st0" d="M91.88,19.18c-1.01,0.72-2.24,1.13-3.64,1.13c-3.68,0-6.24-2.79-6.24-6.16v-0.03c0-3.37,2.6-6.19,6.28-6.19
			s6.24,2.79,6.24,6.16v0.03c0,1.35-0.43,2.63-1.21,3.68l1.37,1.16l-1.35,1.5L91.88,19.18z M90.33,17.79l-2.05-1.74l1.35-1.54
			l2.07,1.88c0.41-0.63,0.62-1.4,0.62-2.24v-0.03c0-2.33-1.69-4.26-4.07-4.26c-2.38,0-4.04,1.9-4.04,4.22v0.03
			c0,2.33,1.69,4.26,4.07,4.26C89.06,18.37,89.76,18.15,90.33,17.79z"/>
		<path class="st0" d="M96.88,15.02V8.13h2.1v6.81c0,2.22,1.15,3.42,3.03,3.42c1.86,0,3.01-1.13,3.01-3.33V8.13h2.1v6.79
			c0,3.57-2.02,5.37-5.15,5.37C98.87,20.29,96.88,18.49,96.88,15.02z"/>
		<path class="st0" d="M110.02,8.13h8.87v1.88h-6.77v3.11h6v1.88h-6v3.21h6.86v1.88h-8.96V8.13z M115.56,4.66l1.88,0.82l-2.19,1.66
			h-1.61L115.56,4.66z"/>
		<path class="st0" d="M121.48,8.13h1.95l6.41,8.28V8.13h2.07V20.1h-1.76l-6.6-8.52v8.52h-2.07V8.13z"/>
		<path class="st0" d="M140.13,8.13h4.72c2.79,0,4.55,1.59,4.55,4v0.03c0,2.68-2.15,4.09-4.79,4.09h-2.38v3.85h-2.1V8.13z
			 M144.68,14.36c1.59,0,2.58-0.89,2.58-2.14v-0.03c0-1.4-1.01-2.14-2.58-2.14h-2.45v4.31H144.68z"/>
		<path class="st0" d="M154.91,15.38l-4.75-7.25h2.48l3.35,5.3l3.39-5.3h2.41l-4.75,7.2v4.77h-2.12V15.38z"/>
		<path class="st0" d="M163.64,8.13h2.24l3.64,5.66l3.64-5.66h2.24V20.1h-2.1v-8.58l-3.78,5.64h-0.07l-3.75-5.61v8.55h-2.07V8.13z"
			/>
		<path class="st0" d="M178.49,8.13h8.87v1.88h-6.77v3.11h6v1.88h-6v3.21h6.86v1.88h-8.96V8.13z"/>
		<path class="st0" d="M189.14,18.36l1.27-1.5c1.15,0.99,2.29,1.56,3.78,1.56c1.3,0,2.12-0.6,2.12-1.5v-0.03
			c0-0.86-0.48-1.32-2.7-1.83c-2.55-0.62-3.98-1.37-3.98-3.57v-0.03c0-2.05,1.71-3.47,4.09-3.47c1.74,0,3.13,0.53,4.34,1.5
			l-1.13,1.59c-1.08-0.8-2.15-1.23-3.25-1.23c-1.23,0-1.95,0.63-1.95,1.42v0.03c0,0.92,0.55,1.33,2.84,1.88
			c2.53,0.62,3.85,1.52,3.85,3.51v0.03c0,2.24-1.76,3.57-4.27,3.57C192.31,20.27,190.58,19.64,189.14,18.36z"/>
	</g>
	<g>
		<path class="st0" d="M43.48,30.29l0.39-0.46c0.58,0.52,1.13,0.78,1.9,0.78c0.74,0,1.23-0.4,1.23-0.94v-0.02
			c0-0.51-0.28-0.81-1.44-1.05c-1.27-0.28-1.86-0.69-1.86-1.6v-0.02c0-0.87,0.77-1.51,1.82-1.51c0.81,0,1.39,0.23,1.95,0.68
			l-0.36,0.48c-0.51-0.42-1.03-0.6-1.6-0.6c-0.72,0-1.18,0.4-1.18,0.89v0.02c0,0.52,0.29,0.82,1.5,1.08c1.23,0.27,1.8,0.72,1.8,1.57
			v0.02c0,0.95-0.79,1.57-1.89,1.57C44.87,31.18,44.15,30.89,43.48,30.29z"/>
		<path class="st0" d="M48.67,28.35v-0.02c0-1.53,1.15-2.87,2.83-2.87s2.82,1.32,2.82,2.85v0.02c0,1.53-1.15,2.87-2.83,2.87
			C49.8,31.2,48.67,29.88,48.67,28.35z M53.67,28.35v-0.02c0-1.26-0.92-2.29-2.18-2.29c-1.27,0-2.17,1.01-2.17,2.27v0.02
			c0,1.26,0.92,2.29,2.18,2.29C52.76,30.62,53.67,29.61,53.67,28.35z"/>
		<path class="st0" d="M55.39,28.35v-0.02c0-1.57,1.17-2.87,2.8-2.87c1,0,1.61,0.36,2.16,0.88l-0.43,0.46
			c-0.47-0.44-0.99-0.76-1.74-0.76c-1.23,0-2.14,1-2.14,2.27v0.02c0,1.28,0.93,2.29,2.14,2.29c0.76,0,1.26-0.29,1.79-0.8l0.41,0.4
			c-0.58,0.59-1.21,0.97-2.22,0.97C56.57,31.2,55.39,29.94,55.39,28.35z"/>
		<path class="st0" d="M61.52,25.56h0.63v5.54h-0.63V25.56z"/>
		<path class="st0" d="M63.77,25.56h4.01v0.57h-3.38v1.89h3.02v0.57h-3.02v1.94h3.42v0.57h-4.04V25.56z"/>
		<path class="st0" d="M69.07,25.56h1.92c1.74,0,2.94,1.19,2.94,2.75v0.02c0,1.56-1.2,2.77-2.94,2.77h-1.92V25.56z M70.99,30.52
			c1.4,0,2.3-0.95,2.3-2.18v-0.02c0-1.23-0.89-2.19-2.3-2.19h-1.3v4.38H70.99z"/>
		<path class="st0" d="M76.94,25.52h0.59l2.52,5.58h-0.67l-0.65-1.46h-3.02l-0.66,1.46h-0.64L76.94,25.52z M78.48,29.08l-1.26-2.83
			l-1.27,2.83H78.48z"/>
		<path class="st0" d="M81.14,25.56h1.92c1.74,0,2.94,1.19,2.94,2.75v0.02c0,1.56-1.2,2.77-2.94,2.77h-1.92V25.56z M83.06,30.52
			c1.4,0,2.3-0.95,2.3-2.18v-0.02c0-1.23-0.89-2.19-2.3-2.19h-1.3v4.38H83.06z"/>
		<path class="st0" d="M89.69,25.56h1.92c1.74,0,2.94,1.19,2.94,2.75v0.02c0,1.56-1.2,2.77-2.94,2.77h-1.92V25.56z M91.62,30.52
			c1.4,0,2.3-0.95,2.3-2.18v-0.02c0-1.23-0.9-2.19-2.3-2.19h-1.3v4.38H91.62z"/>
		<path class="st0" d="M95.88,25.56h4.01v0.57H96.5v1.89h3.02v0.57H96.5v1.94h3.42v0.57h-4.04V25.56z"/>
		<path class="st0" d="M103.3,28.35v-0.02c0-1.52,1.12-2.87,2.78-2.87c0.93,0,1.51,0.27,2.07,0.74l-0.4,0.47
			c-0.43-0.37-0.9-0.63-1.68-0.63c-1.23,0-2.11,1.04-2.11,2.27v0.02c0,1.32,0.85,2.3,2.19,2.3c0.63,0,1.22-0.25,1.6-0.55V28.7h-1.68
			v-0.56h2.29v2.21c-0.51,0.46-1.29,0.85-2.22,0.85C104.38,31.2,103.3,29.93,103.3,28.35z"/>
		<path class="st0" d="M111.8,25.52h0.59l2.53,5.58h-0.67l-0.65-1.46h-3.02l-0.66,1.46h-0.64L111.8,25.52z M113.34,29.08l-1.26-2.83
			l-1.27,2.83H113.34z"/>
		<path class="st0" d="M116,25.56h2.38c0.68,0,1.23,0.21,1.57,0.55c0.27,0.27,0.43,0.66,0.43,1.09v0.02c0,0.92-0.63,1.46-1.5,1.61
			l1.7,2.26h-0.77l-1.61-2.15h-1.58v2.15H116V25.56z M118.32,28.39c0.83,0,1.42-0.43,1.42-1.14v-0.02c0-0.68-0.52-1.09-1.42-1.09
			h-1.71v2.25H118.32z"/>
		<path class="st0" d="M123.76,25.52h0.59l2.53,5.58h-0.67l-0.65-1.46h-3.02l-0.66,1.46h-0.64L123.76,25.52z M125.31,29.08
			l-1.26-2.83l-1.27,2.83H125.31z"/>
		<path class="st0" d="M127.96,25.56h0.59l3.49,4.44v-4.44h0.61v5.54h-0.5l-3.58-4.54v4.54h-0.61V25.56z"/>
		<path class="st0" d="M135.67,26.14h-1.86v-0.58h4.35v0.58h-1.86v4.96h-0.63V26.14z"/>
		<path class="st0" d="M139.39,25.56h0.62v5.54h-0.62V25.56z M140.24,24.05l0.63,0.29l-0.91,0.74h-0.51L140.24,24.05z"/>
		<path class="st0" d="M143.68,25.52h0.59l2.53,5.58h-0.67l-0.65-1.46h-3.02l-0.66,1.46h-0.64L143.68,25.52z M145.23,29.08
			l-1.26-2.83l-1.27,2.83H145.23z"/>
		<path class="st0" d="M150.25,25.56h2.38c0.68,0,1.23,0.21,1.57,0.55c0.27,0.27,0.43,0.66,0.43,1.09v0.02
			c0,0.92-0.63,1.46-1.5,1.61l1.7,2.26h-0.77l-1.61-2.15h-1.58v2.15h-0.63V25.56z M152.58,28.39c0.83,0,1.42-0.43,1.42-1.14v-0.02
			c0-0.68-0.52-1.09-1.42-1.09h-1.71v2.25H152.58z"/>
		<path class="st0" d="M155.97,25.56h4.01v0.57h-3.38v1.89h3.02v0.57h-3.02v1.94h3.42v0.57h-4.04V25.56z"/>
		<path class="st0" d="M161.03,28.35v-0.02c0-1.57,1.17-2.87,2.8-2.87c1.01,0,1.61,0.36,2.16,0.88l-0.43,0.46
			c-0.47-0.44-0.99-0.76-1.74-0.76c-1.23,0-2.15,1-2.15,2.27v0.02c0,1.28,0.93,2.29,2.15,2.29c0.76,0,1.26-0.29,1.79-0.8l0.41,0.4
			c-0.58,0.59-1.21,0.97-2.22,0.97C162.2,31.2,161.03,29.94,161.03,28.35z"/>
		<path class="st0" d="M167.16,25.56h0.62v5.54h-0.62V25.56z M168.02,24.05l0.63,0.29l-0.91,0.74h-0.51L168.02,24.05z"/>
		<path class="st0" d="M169.41,25.56h2.07c1.25,0,2.07,0.67,2.07,1.76v0.02c0,1.2-1,1.81-2.18,1.81h-1.35v1.96h-0.63V25.56z
			 M171.4,28.58c0.92,0,1.52-0.49,1.52-1.22v-0.02c0-0.79-0.59-1.2-1.49-1.2h-1.4v2.44H171.4z"/>
		<path class="st0" d="M174.69,25.56h2.38c0.68,0,1.23,0.21,1.57,0.55c0.27,0.27,0.43,0.66,0.43,1.09v0.02
			c0,0.92-0.63,1.46-1.5,1.61l1.7,2.26h-0.77l-1.61-2.15h-1.58v2.15h-0.63V25.56z M177.02,28.39c0.83,0,1.42-0.43,1.42-1.14v-0.02
			c0-0.68-0.52-1.09-1.42-1.09h-1.71v2.25H177.02z"/>
		<path class="st0" d="M180.16,28.35v-0.02c0-1.53,1.15-2.87,2.83-2.87c1.69,0,2.82,1.32,2.82,2.85v0.02c0,1.53-1.15,2.87-2.83,2.87
			S180.16,29.88,180.16,28.35z M185.17,28.35v-0.02c0-1.26-0.92-2.29-2.18-2.29c-1.27,0-2.17,1.01-2.17,2.27v0.02
			c0,1.26,0.92,2.29,2.18,2.29C184.26,30.62,185.17,29.61,185.17,28.35z"/>
		<path class="st0" d="M186.89,28.35v-0.02c0-1.57,1.17-2.87,2.8-2.87c1.01,0,1.61,0.36,2.16,0.88l-0.43,0.46
			c-0.47-0.44-0.99-0.76-1.74-0.76c-1.23,0-2.15,1-2.15,2.27v0.02c0,1.28,0.93,2.29,2.15,2.29c0.76,0,1.26-0.29,1.79-0.8l0.41,0.4
			c-0.58,0.59-1.21,0.97-2.22,0.97C188.06,31.2,186.89,29.94,186.89,28.35z"/>
		<path class="st0" d="M195.02,25.52h0.59l2.53,5.58h-0.67l-0.65-1.46h-3.02l-0.66,1.46h-0.64L195.02,25.52z M196.56,29.08
			l-1.26-2.83l-1.27,2.83H196.56z"/>
	</g>
</g>
</svg>
